<svg width="37" height="38" viewBox="0 0 37 38" fill="none" xmlns="http://www.w3.org/2000/svg">
<rect x="0.641922" y="1.06111" width="36.1458" height="36.1501" rx="18.0729" stroke="white" stroke-width="0.145172"/>
<g clip-path="url(#clip0_5_1527)">
<path d="M18.7148 19.1361C18.1661 20.2013 17.4304 21.1592 16.5428 21.9641C15.9835 22.5236 15.2708 22.9047 14.4948 23.0592C13.7188 23.2136 12.9145 23.1345 12.1835 22.8317C11.4526 22.529 10.8278 22.0163 10.3882 21.3585C9.94862 20.7007 9.71399 19.9273 9.71399 19.1361C9.71399 18.3449 9.94862 17.5715 10.3882 16.9137C10.8278 16.2559 11.4526 15.7432 12.1835 15.4405C12.9145 15.1378 13.7188 15.0586 14.4948 15.2131C15.2708 15.3675 15.9835 15.7486 16.5428 16.3081C17.4304 17.113 18.1661 18.0709 18.7148 19.1361ZM18.7148 19.1361C19.2636 18.0709 19.9993 17.113 20.8868 16.3081C21.4462 15.7486 22.1589 15.3675 22.9349 15.2131C23.7108 15.0586 24.5152 15.1378 25.2462 15.4405C25.9771 15.7432 26.6019 16.2559 27.0415 16.9137C27.4811 17.5715 27.7157 18.3449 27.7157 19.1361C27.7157 19.9273 27.4811 20.7007 27.0415 21.3585C26.6019 22.0163 25.9771 22.529 25.2462 22.8317C24.5152 23.1345 23.7108 23.2136 22.9349 23.0592C22.1589 22.9047 21.4462 22.5236 20.8868 21.9641C19.9993 21.1592 19.2636 20.2013 18.7148 19.1361Z" stroke="white" stroke-width="1.5" stroke-linecap="round" stroke-linejoin="round"/>
</g>
<defs>
<clipPath id="clip0_5_1527">
<rect width="24" height="24" fill="white" transform="translate(6.71484 7.13611)"/>
</clipPath>
</defs>
</svg>
